<svg width="200" height="200" viewBox="0 0 200 200" xmlns="http://www.w3.org/2000/svg"><title>icon-circle-community</title><g fill="#9BE5DD" fill-rule="evenodd"><path d="M134.84 38.225c2.37 0 4.296 1.98 4.296 4.416 0 1.242-.988 3.51-2.25 5.166-.75.984-1.508 1.96-2.05 2.65a298.296 298.296 0 0 1-2.358-3.01c-1.048-1.35-1.932-3.55-1.932-4.805 0-2.434 1.926-4.415 4.295-4.415m-.778 14.47l.785.976.778-.98s1.44-1.818 2.852-3.672c1.566-2.055 2.66-4.677 2.66-6.377 0-3.537-2.825-6.415-6.296-6.415-3.47 0-6.294 2.878-6.294 6.416 0 1.71 1.01 4.303 2.35 6.03a297.01 297.01 0 0 0 3.166 4.025M29.276 112.597l-.333-.53-1.885.206-.533-1.504 1.608-1.03-.07-.62a8.21 8.21 0 0 1 .145-2.736l.137-.61-1.494-1.195.69-1.442 1.87.41.388-.49a8.215 8.215 0 0 1 2.033-1.833l.526-.335-.21-1.898 1.505-.533 1.024 1.595.623-.075a8.244 8.244 0 0 1 2.767.132l.607.134 1.17-1.46 1.442.687-.397 1.81.497.387a8.214 8.214 0 0 1 1.888 2.085l.334.527 1.823-.202.534 1.506-1.533.982.078.625a8.2 8.2 0 0 1-.143 2.842l-.14.61 1.412 1.13-.688 1.442-1.763-.387-.388.492a8.225 8.225 0 0 1-2.12 1.897l-.535.332.2 1.81-1.504.533-.99-1.544-.62.072c-.948.11-1.895.057-2.81-.156l-.613-.143-1.157 1.446-1.442-.69.4-1.828-.485-.388a8.232 8.232 0 0 1-1.844-2.067zm-.365 5.406l4.306 2.053 1.375-1.717c.736.122 1.483.162 2.234.123l1.183 1.847 4.496-1.59-.24-2.158c.622-.44 1.188-.948 1.694-1.515l2.11.463 2.057-4.305-1.69-1.35c.123-.75.16-1.51.114-2.27l1.83-1.17-1.595-4.497-2.18.24a10.225 10.225 0 0 0-1.5-1.656l.473-2.15-4.306-2.055-1.397 1.745a10.263 10.263 0 0 0-2.18-.105l-1.214-1.893-4.496 1.59.25 2.26c-.583.424-1.117.905-1.595 1.437l-2.223-.485-2.055 4.304 1.775 1.42c-.113.708-.152 1.426-.114 2.145l-1.913 1.226 1.592 4.494 2.234-.246c.426.596.912 1.14 1.453 1.63l-.48 2.185z"/><path d="M34.737 107.46a1.72 1.72 0 0 1 2.29-.812 1.72 1.72 0 0 1 .81 2.29 1.702 1.702 0 0 1-.977.88 1.7 1.7 0 0 1-1.313-.07 1.705 1.705 0 0 1-.88-.977 1.703 1.703 0 0 1 .07-1.31m-.052 4.092a3.697 3.697 0 0 0 2.843.15 3.686 3.686 0 0 0 2.113-1.902 3.724 3.724 0 0 0-1.752-4.957 3.723 3.723 0 0 0-4.955 1.754 3.683 3.683 0 0 0-.15 2.84 3.686 3.686 0 0 0 1.902 2.115M57.412 158.03a13.788 13.788 0 0 1-3.63 2.855l-.548.3.133 3.157-3.403.948-1.51-2.752-.626.033c-1.57.085-3.133-.098-4.64-.54l-.597-.175-2.1 2.286-3.077-1.735.86-2.95-.47-.42a13.798 13.798 0 0 1-2.943-3.723l-.297-.55-3.037.13-.947-3.404 2.644-1.45-.035-.628a13.84 13.84 0 0 1 .568-4.764l.18-.6-2.21-2.032 1.736-3.076 2.882.84.42-.465a13.826 13.826 0 0 1 3.782-2.95l.556-.297-.127-3.014 3.403-.948 1.46 2.663.624-.03c1.6-.074 3.183.126 4.71.594l.602.186 2.078-2.263 3.077 1.736-.87 2.978.46.42a13.842 13.842 0 0 1 2.864 3.693l.297.555 3.137-.133.948 3.402-2.772 1.52.028.623c.07 1.553-.12 3.096-.564 4.585l-.18.6 2.34 2.147-1.736 3.076-3.048-.89-.42.464zm4.43 2.79l3.295-5.84-2.596-2.385c.336-1.31.502-2.655.495-4.01l3.082-1.69-1.8-6.458-3.48.147a15.846 15.846 0 0 0-2.51-3.236l.968-3.32-5.84-3.296-2.308 2.513a15.258 15.258 0 0 0-4.146-.52l-1.63-2.974-6.458 1.8.142 3.355c-1.23.72-2.35 1.592-3.34 2.606l-3.213-.937-3.293 5.84 2.465 2.266a15.838 15.838 0 0 0-.502 4.204l-2.944 1.613 1.8 6.46 3.387-.144a15.816 15.816 0 0 0 2.592 3.28l-.957 3.275 5.842 3.294 2.34-2.548c1.332.334 2.698.497 4.07.475l1.673 3.053 6.46-1.8-.148-3.513a15.792 15.792 0 0 0 3.175-2.497l3.383.988z"/><path d="M51.074 149.997a4.2 4.2 0 0 1-5.24 2.785 4.2 4.2 0 0 1-2.784-5.24 4.204 4.204 0 0 1 5.24-2.784 4.2 4.2 0 0 1 2.784 5.24m-2.2-7.152c-3.267-.998-6.738.846-7.736 4.112a6.202 6.202 0 0 0 5.92 8.008 6.206 6.206 0 0 0 5.928-4.384 6.2 6.2 0 0 0-4.112-7.736"/><path d="M100 198c-54.038 0-98-43.962-98-98S45.962 2 100 2s98 43.962 98 98-43.962 98-98 98m0-198C44.86 0 0 44.86 0 100s44.86 100 100 100 100-44.86 100-100S155.14 0 100 0"/><path d="M152.353 126.412l.32-3.483.22-.278 2.996 2.37-.22.28-3.316 1.11zM173.81 96.38l2.85 2.256-19.534 24.815-2.986-2.363 19.672-24.708zm-.32-2.806l-22.752 28.576-.656 7.132 6.79-2.274 22.595-28.702-5.978-4.732zM80.546 155.808c-2.64 2.764-2.63 7.167.016 9.815l1.414-1.414c-1.885-1.887-1.878-5.036.016-7.02l-1.446-1.382z"/><path d="M104.46 177.652l-.696.693c-.473.473-1.134.473-1.607 0l-7.603-7.603 2.147-2.147 7.604 7.603.093.082c.3.233.352.532.356.69a.87.87 0 0 1-.293.682zm-27.802-16.946c0-5.637 4.586-10.223 10.223-10.223 5.638 0 10.224 4.586 10.224 10.223 0 5.637-4.586 10.223-10.223 10.223-5.636 0-10.222-4.587-10.222-10.224zm20.906 5.924a12.14 12.14 0 0 0 1.54-5.924c0-6.74-5.483-12.223-12.223-12.223-6.74 0-12.222 5.483-12.222 12.223 0 6.74 5.483 12.223 12.223 12.223a12.13 12.13 0 0 0 5.642-1.39l8.22 8.22c.622.62 1.42.932 2.218.932s1.597-.31 2.218-.933l.627-.628c.627-.563.97-1.37.947-2.22a2.898 2.898 0 0 0-1.074-2.168l-8.114-8.114zM137.884 165.773l-3.505-5.497 6.025-3.928a7.524 7.524 0 0 1-2.52 9.425zm-6.785 4.342a7.463 7.463 0 0 1-5.69 1.005 7.487 7.487 0 0 1-4.697-3.302c-2.23-3.497-1.2-8.156 2.298-10.386l5.107-3.256 8.088 12.684-5.106 3.255zm8.21-15.442l-6.007 3.916-3.49-5.473a7.47 7.47 0 0 1 3.797-1.05 7.53 7.53 0 0 1 5.7 2.606zm17.022-14.676l-1.687 1.075c2.332 3.657 3.012 6.003 3.172 7.327.158 1.304-.102 2.244-.733 2.646-1.897 1.212-4.114-1.287-7.04-4.95-2.83-3.544-5.76-7.21-8.972-5.162-3.17 2.02-1.67 5.386-.576 7.843.54 1.212 1.098 2.465 1.072 3.345a2.687 2.687 0 0 1-.532 1.497 9.467 9.467 0 0 0-5.36-3.314c-2.493-.55-5.043-.107-7.174 1.252l-6.566 4.187c-4.427 2.823-5.732 8.72-2.91 13.148a9.473 9.473 0 0 0 5.943 4.178c.695.158 1.398.235 2.095.235 1.792 0 3.554-.51 5.11-1.503l6.566-4.188c4.14-2.638 5.548-7.964 3.408-12.263.88-.81 1.397-2.046 1.42-3.18.038-1.326-.586-2.726-1.245-4.207-1.286-2.887-1.723-4.356-.176-5.342 1.577-1.003 3.62 1.325 6.335 4.725 2.867 3.59 6.116 7.66 9.677 5.387.76-.485 1.987-1.725 1.643-4.573-.27-2.227-1.437-4.973-3.47-8.163zM74.27 76.88c5.143 0 9.327 4.185 9.327 9.328 0 2.176-.815 4.326-2.296 6.053l-.755.884.985.616c2.56 1.6 4.49 4.083 5.47 7.003a17.662 17.662 0 0 0-4.363 8.688c-2.297.736-5.19 1.125-8.368 1.125-6.662 0-13.405-1.928-13.405-5.614 0-4.644 2.298-8.867 6.146-11.292l1.005-.634-.794-.882c-1.448-1.61-2.28-3.81-2.28-6.035 0-5.093 4.186-9.237 9.33-9.237M91.66 99.427l.976-.627-.764-.874c-1.768-2.02-2.742-4.586-2.742-7.223 0-5.992 4.875-10.868 10.868-10.868s10.868 4.876 10.868 10.868c0 2.637-.974 5.202-2.742 7.223l-.765.874.978.627c4.59 2.945 7.332 7.913 7.332 13.29 0 4.48-8.123 6.52-15.67 6.52-7.547 0-15.67-2.04-15.67-6.52 0-5.377 2.74-10.345 7.332-13.29m26.808-5.667l1.01-.632-.797-.885c-1.45-1.61-2.28-3.81-2.28-6.035 0-5.143 4.184-9.328 9.328-9.328 5.144 0 9.33 4.185 9.33 9.328 0 2.176-.817 4.326-2.297 6.053l-.754.88.98.617c3.848 2.427 6.146 6.616 6.146 11.204 0 3.687-6.744 5.615-13.405 5.615-3.178 0-6.07-.39-8.366-1.124a17.67 17.67 0 0 0-4.362-8.687c.98-2.92 2.907-5.403 5.468-7.003m-55.53-7.643c0 2.327.75 4.634 2.082 6.488-3.875 2.86-6.157 7.4-6.157 12.356 0 5.26 7.737 7.615 15.404 7.615 2.994 0 5.77-.33 8.096-.96-.023.366-.035.733-.035 1.103 0 3.93 4.628 8.52 17.67 8.52 8.15 0 17.67-2.232 17.67-8.52 0-.37-.013-.737-.036-1.103 2.327.63 5.102.96 8.097.96 7.67 0 15.406-2.354 15.406-7.614 0-4.907-2.288-9.418-6.172-12.274 1.358-1.92 2.095-4.184 2.095-6.478 0-6.246-5.083-11.328-11.33-11.328-6.246 0-11.327 5.082-11.327 11.328 0 2.325.748 4.632 2.08 6.485a15.195 15.195 0 0 0-5.06 6.547 18.58 18.58 0 0 0-1.09-.87 12.94 12.94 0 0 0 2.535-7.667c0-7.095-5.772-12.868-12.868-12.868s-12.868 5.773-12.868 12.868c0 2.752.893 5.435 2.535 7.667-.378.276-.74.57-1.09.87a15.188 15.188 0 0 0-5.073-6.556c1.356-1.92 2.093-4.183 2.093-6.476 0-6.246-5.08-11.328-11.328-11.328-6.247 0-11.33 5.04-11.33 11.237M102.317 60.022a40.106 40.106 0 0 1 19.46 6.327l1.086-1.68a42.1 42.1 0 0 0-20.433-6.645c-9.003-.51-17.753 1.808-25.297 6.708l1.09 1.677c7.183-4.666 15.514-6.88 24.094-6.388M173.368 64.757c0 3.547-2.652 9.67-6.168 14.24a751.717 751.717 0 0 1-6.59 8.424 857.824 857.824 0 0 1-7.4-9.333c-2.95-3.774-5.348-9.754-5.348-13.33 0-7.135 5.72-12.94 12.753-12.94 7.032 0 12.753 5.805 12.753 12.94m-27.506 0c0 4.023 2.535 10.42 5.773 14.562a812.276 812.276 0 0 0 8.204 10.33l.78.965.776-.97c.037-.047 3.772-4.723 7.39-9.428 3.813-4.96 6.582-11.46 6.582-15.46 0-8.238-6.618-14.94-14.753-14.94s-14.753 6.702-14.753 14.94"/><path d="M166.617 63.85c0 3.362-2.693 6.097-6.002 6.097-3.31 0-6.003-2.735-6.003-6.097 0-3.362 2.692-6.097 6.003-6.097 3.31 0 6.002 2.735 6.002 6.097m-14.005 0c0 4.465 3.59 8.097 8.003 8.097 4.412 0 8.002-3.632 8.002-8.097 0-4.464-3.59-8.097-8.002-8.097-4.413 0-8.003 3.633-8.003 8.097M59.587 179.363a88.346 88.346 0 0 0 26.36 8.576l.314-1.976a86.396 86.396 0 0 1-25.764-8.382l-.91 1.78zM115.37 185.69a87.112 87.112 0 0 1-4.342.66l.25 1.984a88.97 88.97 0 0 0 13.288-2.725l-.55-1.922a86.908 86.908 0 0 1-8.645 2.002M186.357 110.964a86.896 86.896 0 0 1-16.215 40.584l1.61 1.186c8.97-12.185 14.707-26.543 16.59-41.52l-1.985-.25zM163.8 37.89a88.844 88.844 0 0 0-27.1-19.04l-.824 1.823a86.827 86.827 0 0 1 26.492 18.613l1.433-1.396zM113.75 132.143l.2-.112-.975-1.744-.19.106c-4.04 2.22-8.342 3.348-12.785 3.348-4.514 0-8.878-1.16-12.972-3.453l-.977 1.745c4.397 2.46 9.09 3.708 13.95 3.708 4.784 0 9.41-1.21 13.75-3.597"/><path d="M67.442 124.11l-1.606 1.192c7.99 10.78 20.762 17.216 34.164 17.216 13.402 0 26.174-6.436 34.165-17.217l-1.607-1.19c-7.616 10.274-19.787 16.408-32.558 16.408-12.77 0-24.942-6.133-32.558-16.407M37.113 39.568a87.026 87.026 0 0 1 26.502-18.856l-.835-1.818a89.046 89.046 0 0 0-27.108 19.288 89.81 89.81 0 0 0-9.934 12.357l1.663 1.11a87.875 87.875 0 0 1 9.713-12.082M13.278 90.66l-1.99-.212a90.73 90.73 0 0 0-.504 9.552c0 11.255 2.068 22.226 6.147 32.608l1.862-.73c-3.987-10.15-6.008-20.874-6.008-31.878 0-3.116.166-6.26.494-9.34M107.967 30.912c.973 0 1.765-.792 1.765-1.766 0-.973-.792-1.765-1.765-1.765-.974 0-1.766.793-1.766 1.766 0 .974.793 1.766 1.767 1.766M100 30.912c.974 0 1.766-.792 1.766-1.766 0-.973-.792-1.765-1.766-1.765s-1.766.793-1.766 1.766c0 .974.792 1.766 1.766 1.766M92.034 30.912c.973 0 1.765-.792 1.765-1.766 0-.973-.793-1.765-1.766-1.765-.974 0-1.766.793-1.766 1.766 0 .974.792 1.766 1.766 1.766"/><path d="M100 12.535c11.222 0 20.352 7.518 20.352 16.758 0 9.24-9.13 16.758-20.352 16.758-2.88 0-5.672-.49-8.297-1.457l-.55-.203-4.238 3.616-.215-6.028-.383-.287c-4.238-3.174-6.67-7.692-6.67-12.397 0-9.24 9.13-16.758 20.353-16.758M84.735 42.998l.328 9.216 6.503-5.547c2.685.92 5.52 1.384 8.434 1.384 12.325 0 22.352-8.413 22.352-18.757 0-10.343-10.027-18.758-22.352-18.758-12.325 0-22.352 8.415-22.352 18.758 0 5.195 2.577 10.165 7.087 13.705M68.405 44.26c0 1.943-.99 3.816-2.717 5.138l-.375.287-.063 1.797-1.228-1.07-.56.21c-1.09.41-2.25.62-3.447.62-4.627 0-8.39-3.133-8.39-6.983 0-3.85 3.763-6.983 8.39-6.983 4.626 0 8.39 3.132 8.39 6.982m-18.78 0c0 4.952 4.66 8.98 10.39 8.98 1.232 0 2.434-.183 3.58-.547l3.51 3.058.174-5.067c1.992-1.684 3.125-4 3.125-6.424 0-4.954-4.66-8.983-10.39-8.983s-10.39 4.03-10.39 8.982M20.52 68.42l8.578-.03.002.904v.02l.023 11.622c0 .008-.004.014-.004.022 0 .016.003.03.003.045l.004 2.118h-7.693l-.915-14.7zm16.75-5.906l-.022-.955c-.044-1.3-.037-2.062.12-2.63a.457.457 0 0 1 .44-.334c.034 0 .238 0 .274.002.28.025.51.078.786.27.863.59 1.462 1.68 1.563 2.848.164 1.945-.395 3.617-.483 3.798-.016.03-.03.063-.044.095-.257.65-.035 1.114.12 1.33.467.658 1.313.623 1.714.605h9.22a1.067 1.067 0 0 1 0 2.13h-1.093a1 1 0 0 0-.075 1.998c.552.042.985.504.985 1.053 0 .588-.478 1.066-1.066 1.066h-.752a1 1 0 0 0-.075 1.997c.553.04.986.504.986 1.052 0 .588-.48 1.066-1.067 1.066h-.636a1 1 0 0 0-.075 1.997c.553.04.987.504.987 1.053 0 .588-.48 1.066-1.067 1.066H32.185a1.067 1.067 0 0 1-1.066-1.066c0-.036-.018-.066-.022-.1V69.925c.406-.186.738-.34.763-.353 3.944-2.033 5.41-3.94 5.41-7.06zM30.986 83.78a3.03 3.03 0 0 0 1.2.244h15.827a3.07 3.07 0 0 0 3.066-3.066 3.03 3.03 0 0 0-.48-1.633 3.064 3.064 0 0 0 1.27-2.483c0-.573-.163-1.113-.445-1.576a3.065 3.065 0 0 0 1.35-2.54c0-.51-.128-.994-.355-1.42a3.068 3.068 0 0 0 1.604-2.696 3.07 3.07 0 0 0-3.066-3.065H42.04c.258-.93.517-2.403.383-4-.15-1.75-1.08-3.41-2.424-4.327a3.456 3.456 0 0 0-1.74-.612c-.054-.005-.4-.01-.453-.01-1.098 0-2.07.74-2.365 1.797-.23.823-.245 1.7-.193 3.223l.02.92c0 2.008-.668 3.372-4.28 5.238a1.966 1.966 0 0 0-1.863-1.354H20.52a1.97 1.97 0 0 0-1.966 2.093l.886 14.764a1.974 1.974 0 0 0 1.967 1.844h7.72c.866 0 1.595-.563 1.86-1.34z"/></g></svg>